<svg width="20" height="20" viewBox="0 0 20 20" fill="none" xmlns="http://www.w3.org/2000/svg">
<g clip-path="url(#clip0_32_455)">
<path d="M10 0C8.61978 0 7.32097 0.227862 6.10352 0.683593C4.88606 1.13933 3.82487 1.76432 2.91992 2.55859C2.01497 3.35287 1.30209 4.28059 0.78125 5.3418C0.260414 6.403 0 7.53906 0 8.75C0 9.44011 0.0878897 10.1074 0.263672 10.752C0.439454 11.3965 0.690103 12.0117 1.01562 12.5977C1.34115 13.1836 1.73502 13.7272 2.19727 14.2285C2.65951 14.7298 3.17708 15.1758 3.75 15.5664V20L8.125 17.3438C8.4375 17.3958 8.74674 17.4349 9.05273 17.4609C9.35872 17.487 9.67448 17.5 10 17.5C11.3802 17.5 12.679 17.2721 13.8965 16.8164C15.1139 16.3607 16.1751 15.7357 17.0801 14.9414C17.985 14.1471 18.6979 13.2194 19.2188 12.1582C19.7396 11.097 20 9.96094 20 8.75C20 7.53906 19.7396 6.403 19.2188 5.3418C18.6979 4.28059 17.985 3.35287 17.0801 2.55859C16.1751 1.76432 15.1139 1.13933 13.8965 0.683593C12.679 0.227862 11.3802 0 10 0ZM10 16.25C9.63541 16.25 9.27734 16.2305 8.92578 16.1914C8.57422 16.1523 8.22917 16.0938 7.89062 16.0156L4.94141 17.793L4.98047 14.8828C4.42057 14.5443 3.90951 14.1536 3.44727 13.7109C2.98502 13.2682 2.59115 12.7865 2.26562 12.2656C1.9401 11.7448 1.68945 11.1882 1.51367 10.5957C1.33789 10.0033 1.25 9.38802 1.25 8.75C1.25 7.70833 1.47786 6.73503 1.93359 5.83008C2.38933 4.92513 3.01432 4.13086 3.80859 3.44727C4.60287 2.76367 5.53059 2.22656 6.5918 1.83594C7.653 1.44531 8.78906 1.25 10 1.25C11.2109 1.25 12.347 1.44531 13.4082 1.83594C14.4694 2.22656 15.3971 2.76367 16.1914 3.44727C16.9857 4.13086 17.6107 4.92513 18.0664 5.83008C18.5221 6.73503 18.75 7.70833 18.75 8.75C18.75 9.79167 18.5221 10.765 18.0664 11.6699C17.6107 12.5749 16.9857 13.3691 16.1914 14.0527C15.3971 14.7363 14.4694 15.2734 13.4082 15.6641C12.347 16.0547 11.2109 16.25 10 16.25Z" fill="black" fill-opacity="0.5"/>
</g>
<defs>
<clipPath id="clip0_32_455">
<rect width="20" height="20" fill="white"/>
</clipPath>
</defs>
</svg>
