<svg width="15" height="20" viewBox="0 0 15 20" fill="none" xmlns="http://www.w3.org/2000/svg">
<g clip-path="url(#clip0_32_458)">
<path d="M13.5 1.692H1.5V18.1097L6.45703 12.7429L7.5 11.6193L8.54297 12.7429L13.5 18.1097V1.692ZM13.6406 0C13.8203 0 13.9922 0.0396557 14.1562 0.118969C14.4141 0.233532 14.6191 0.414187 14.7715 0.660939C14.9238 0.90769 15 1.18088 15 1.4805V18.5195C15 18.8191 14.9238 19.0923 14.7715 19.3391C14.6191 19.5858 14.4141 19.7665 14.1562 19.881C14.0078 19.9515 13.8359 19.9868 13.6406 19.9868C13.2656 19.9868 12.9414 19.8458 12.668 19.5638L7.5 13.959L2.33203 19.5638C2.05078 19.8546 1.72656 20 1.35937 20C1.17969 20 1.00781 19.9603 0.84375 19.881C0.585936 19.7665 0.38086 19.5858 0.228516 19.3391C0.076171 19.0923 0 18.8191 0 18.5195V1.4805C0 1.18088 0.076171 0.90769 0.228516 0.660939C0.38086 0.414187 0.585936 0.233532 0.84375 0.118969C1.00781 0.0396557 1.17969 0 1.35937 0H13.6406Z" fill="black" fill-opacity="0.45"/>
</g>
<defs>
<clipPath id="clip0_32_458">
<rect width="15" height="20" fill="white"/>
</clipPath>
</defs>
</svg>
